<svg width="24" height="24" viewBox="0 0 24 24" fill="none" xmlns="http://www.w3.org/2000/svg">
<path fill-rule="evenodd" clip-rule="evenodd" d="M12 2C10.5842 2 10.0593 2.89085 10.0048 4.25213C8.74757 4.59793 7.83889 5.26804 7.20804 6.06457C6.30033 7.21067 6 8.57637 6 9.5V15.2929L4.14645 17.1464L4 17.2929V17.5V18.5V19H4.5H19.5H20V18.5V17.5V17.2929L19.8536 17.1464L18 15.2929V9.5C18 8.57637 17.6997 7.21067 16.792 6.06457C16.1611 5.26804 15.2524 4.59793 13.9952 4.25213C13.9407 2.89085 13.4158 2 12 2ZM7.99196 6.68543C7.24967 7.62266 7 8.75696 7 9.5V15.5V15.7071L6.85355 15.8536L5 17.7071V18H19V17.7071L17.1464 15.8536L17 15.7071V15.5V9.5C17 8.75696 16.7503 7.62266 16.008 6.68543C15.2833 5.77036 14.0562 5 12 5C9.94379 5 8.71669 5.77036 7.99196 6.68543ZM14 20C14 21.1046 13.1046 22 12 22C10.8954 22 10 21.1046 10 20H14Z" fill="black"/>
</svg>
