<svg width="24" height="24" viewBox="0 0 24 24" fill="none" xmlns="http://www.w3.org/2000/svg">
<path fill-rule="evenodd" clip-rule="evenodd" d="M16 10C16 13.3137 13.3137 16 10 16C6.68629 16 4 13.3137 4 10C4 6.68629 6.68629 4 10 4C13.3137 4 16 6.68629 16 10ZM14.5895 15.2856C13.3607 16.3535 11.7558 17 10 17C6.13401 17 3 13.866 3 10C3 6.13401 6.13401 3 10 3C13.866 3 17 6.13401 17 10C17 11.7558 16.3535 13.3607 15.2856 14.5895C15.3095 14.6062 15.3323 14.6251 15.3536 14.6464L20.8536 20.1464C21.0488 20.3417 21.0488 20.6583 20.8536 20.8536C20.6583 21.0488 20.3417 21.0488 20.1464 20.8536L14.6464 15.3536C14.6251 15.3323 14.6062 15.3095 14.5895 15.2856Z" fill="black"/>
</svg>
