<svg width="24" height="24" viewBox="0 0 24 24" fill="none" xmlns="http://www.w3.org/2000/svg">
<path fill-rule="evenodd" clip-rule="evenodd" d="M7 5H5V7H7V5ZM5 4H4V5V7V8H5H7H8V7V5V4H7H5ZM13 5H11V7H13V5ZM11 4H10V5V7V8H11H13H14V7V5V4H13H11ZM17 5H19V7H17V5ZM16 4H17H19H20V5V7V8H19H17H16V7V5V4ZM7 11H5V13H7V11ZM5 10H4V11V13V14H5H7H8V13V11V10H7H5ZM11 11H13V13H11V11ZM10 10H11H13H14V11V13V14H13H11H10V13V11V10ZM19 11H17V13H19V11ZM17 10H16V11V13V14H17H19H20V13V11V10H19H17ZM5 17H7V19H5V17ZM4 16H5H7H8V17V19V20H7H5H4V19V17V16ZM13 17H11V19H13V17ZM11 16H10V17V19V20H11H13H14V19V17V16H13H11ZM17 17H19V19H17V17ZM16 16H17H19H20V17V19V20H19H17H16V19V17V16Z" fill="black"/>
</svg>
